<?xml version="1.0" encoding="UTF-8"?>
<svg version="1.1" xmlns="http://www.w3.org/2000/svg" width="100" height="100">
<path d="M0 0 C33 0 66 0 100 0 C100 4.29 100 8.58 100 13 C98.2421875 13.5859375 96.484375 14.171875 94.7265625 14.7578125 C92.06394816 16.67344906 91.84498828 18.87354336 91 22 C90.77772481 24.52263617 90.64669784 27.0542567 90.5859375 29.5859375 C90.56657135 30.28772125 90.5472052 30.989505 90.5272522 31.71255493 C90.46792431 33.93324999 90.42126083 36.15399823 90.375 38.375 C90.33677698 39.88934434 90.29772278 41.40366794 90.2578125 42.91796875 C90.16071116 46.61186543 90.08077587 50.30556666 90 54 C85.38 54 80.76 54 76 54 C75.970271 52.49433472 75.970271 52.49433472 75.93994141 50.95825195 C75.86366251 47.22135034 75.77498014 43.48482683 75.68261719 39.74829102 C75.64441928 38.1334583 75.60955055 36.51854316 75.578125 34.90356445 C75.53227391 32.57733783 75.47431416 30.25167408 75.4140625 27.92578125 C75.40251129 27.20787918 75.39096008 26.48997711 75.37905884 25.75032043 C75.26333705 21.78806625 75.0734713 18.43204746 73 15 C68.90343118 12.48791736 64.48072662 12.70903982 59.8125 12.734375 C59.03237549 12.73246155 58.25225098 12.7305481 57.44848633 12.72857666 C55.80452144 12.72721998 54.16054566 12.73088021 52.51660156 12.73925781 C50.00821746 12.74996492 47.50054947 12.73934521 44.9921875 12.7265625 C43.39062343 12.72788419 41.7890598 12.73044677 40.1875 12.734375 C39.06855347 12.72830231 39.06855347 12.72830231 37.92700195 12.72210693 C33.88848769 12.75825998 30.48917735 12.86037969 27 15 C24.57013715 19.02195325 24.6596135 23.34685329 24.5859375 27.92578125 C24.56657135 28.67337204 24.5472052 29.42096283 24.5272522 30.19120789 C24.46776082 32.56485806 24.42119408 34.93855754 24.375 37.3125 C24.33679211 38.92775482 24.29773875 40.54298987 24.2578125 42.15820312 C24.1620847 46.1053071 24.07794233 50.05250639 24 54 C19.38 54 14.76 54 10 54 C9.96261719 51.77121094 9.92523438 49.54242188 9.88671875 47.24609375 C9.84040008 45.06818277 9.78920442 42.89043666 9.73754883 40.71264648 C9.70446091 39.20851813 9.67637955 37.70427042 9.65356445 36.19995117 C9.61971834 34.02731856 9.5673938 31.85576387 9.51171875 29.68359375 C9.48553467 28.37962646 9.45935059 27.07565918 9.43237305 25.73217773 C8.92419224 21.34563907 8.23347855 18.81102625 6 15 C4.02 14.34 2.04 13.68 0 13 C0 8.71 0 4.42 0 0 Z " fill="#339AEF" transform="translate(0,20)"/>
<path d="M0 0 C14.52 0 29.04 0 44 0 C44 6.6 44 13.2 44 20 C40.7 20 37.4 20 34 20 C34 30.56 34 41.12 34 52 C30.7 52 27.4 52 24 52 C24 49.36 24 46.72 24 44 C22.68 44 21.36 44 20 44 C20 46.64 20 49.28 20 52 C16.7 52 13.4 52 10 52 C10 41.44 10 30.88 10 20 C6.7 20 3.4 20 0 20 C0 13.4 0 6.8 0 0 Z M20 8 C20 10.64 20 13.28 20 16 C21.32 16 22.64 16 24 16 C24 13.36 24 10.72 24 8 C22.68 8 21.36 8 20 8 Z M20 20 C20 22.64 20 25.28 20 28 C21.32 28 22.64 28 24 28 C24 25.36 24 22.72 24 20 C22.68 20 21.36 20 20 20 Z M20 32 C20 34.64 20 37.28 20 40 C21.32 40 22.64 40 24 40 C24 37.36 24 34.72 24 32 C22.68 32 21.36 32 20 32 Z " fill="#339AF0" transform="translate(28,40)"/>
<path d="M0 0 C1.98 0 3.96 0 6 0 C6 6.6 6 13.2 6 20 C4.02 20 2.04 20 0 20 C0 13.4 0 6.8 0 0 Z " fill="#339AF0" transform="translate(94,40)"/>
<path d="M0 0 C1.98 0 3.96 0 6 0 C6 6.6 6 13.2 6 20 C4.02 20 2.04 20 0 20 C0 13.4 0 6.8 0 0 Z " fill="#339AF0" transform="translate(0,40)"/>
</svg>
